<svg width="30" height="30" viewBox="0 0 30 30" fill="none" xmlns="http://www.w3.org/2000/svg">
<path d="M15 0C7.73057 0 1.81641 5.91416 1.81641 13.1836C1.81641 13.9892 1.81641 20.2212 1.81641 20.332C1.81641 21.7859 2.99924 22.9688 4.45312 22.9688H5.4832C5.84602 23.9917 6.82295 24.7266 7.96875 24.7266C9.42264 24.7266 10.6055 23.5437 10.6055 22.0898V14.9414C10.6055 13.4875 9.42264 12.3047 7.96875 12.3047C6.82295 12.3047 5.84602 13.0396 5.4832 14.0625H4.45312C4.14498 14.0625 3.84932 14.1161 3.57422 14.2137V13.1836C3.57422 6.88342 8.69982 1.75781 15 1.75781C21.3002 1.75781 26.4258 6.88342 26.4258 13.1836V14.2137C26.1507 14.1161 25.855 14.0625 25.5469 14.0625H24.5168C24.154 13.0396 23.1771 12.3047 22.0312 12.3047C20.5774 12.3047 19.3945 13.4875 19.3945 14.9414V22.0898C19.3945 23.5437 20.5774 24.7266 22.0312 24.7266C22.2973 24.7266 22.5542 24.6866 22.7965 24.6129C22.4678 25.6947 21.4613 26.4844 20.2734 26.4844H17.4855C17.1227 25.4614 16.1458 24.7266 15 24.7266C13.5461 24.7266 12.3633 25.9094 12.3633 27.3633C12.3633 28.8172 13.5461 30 15 30C16.1458 30 17.1227 29.2651 17.4855 28.2422H20.2734C22.6966 28.2422 24.668 26.2708 24.668 23.8477V22.9688H25.5469C27.0008 22.9688 28.1836 21.7859 28.1836 20.332C28.1836 20.2228 28.1836 13.9886 28.1836 13.1836C28.1836 5.91416 22.2694 0 15 0ZM7.08984 14.9414C7.08984 14.4568 7.48412 14.0625 7.96875 14.0625C8.45338 14.0625 8.84766 14.4568 8.84766 14.9414V22.0898C8.84766 22.5745 8.45338 22.9688 7.96875 22.9688C7.48412 22.9688 7.08984 22.5745 7.08984 22.0898V14.9414ZM4.45312 15.8203H5.33203V21.2109H4.45312C3.9685 21.2109 3.57422 20.8167 3.57422 20.332V16.6992C3.57422 16.2146 3.9685 15.8203 4.45312 15.8203ZM15 28.2422C14.5154 28.2422 14.1211 27.8479 14.1211 27.3633C14.1211 26.8787 14.5154 26.4844 15 26.4844C15.4846 26.4844 15.8789 26.8787 15.8789 27.3633C15.8789 27.8479 15.4846 28.2422 15 28.2422ZM22.9102 22.0898C22.9102 22.5745 22.5159 22.9688 22.0312 22.9688C21.5466 22.9688 21.1523 22.5745 21.1523 22.0898V14.9414C21.1523 14.4568 21.5466 14.0625 22.0312 14.0625C22.5159 14.0625 22.9102 14.4568 22.9102 14.9414V22.0898ZM26.4258 20.332C26.4258 20.8167 26.0315 21.2109 25.5469 21.2109H24.668V15.8203H25.5469C26.0315 15.8203 26.4258 16.2146 26.4258 16.6992V20.332Z" fill="#47443F"/>
</svg>
