<svg width="30" height="30" viewBox="0 0 30 30" fill="none" xmlns="http://www.w3.org/2000/svg">
<g clip-path="url(#clip0)">
<path d="M29.1389 3.26355C28.5506 3.13732 27.9719 3.51209 27.8459 4.10013L27.0546 7.79304C24.535 3.49476 19.9104 0.797485 14.8417 0.797485C7.0359 0.797485 0.685425 7.14786 0.685425 14.9538C0.685425 15.5551 1.17292 16.0427 1.77437 16.0427C2.37573 16.0427 2.86332 15.5551 2.86332 14.9538C2.86332 8.34884 8.23679 2.97538 14.8417 2.97538C19.1478 2.97538 23.0755 5.27549 25.202 8.93783L21.5715 8.1598C20.9833 8.03374 20.4045 8.40843 20.2786 8.99646C20.1526 9.58449 20.5272 10.1635 21.1153 10.2894L27.3472 11.6249C27.453 11.6476 27.5605 11.6542 27.6665 11.6453C27.8431 11.6304 28.0153 11.5725 28.1669 11.4744C28.4094 11.3175 28.5796 11.0707 28.6402 10.7883L29.9757 4.55644C30.1015 3.96849 29.7269 3.3897 29.1389 3.26355Z" fill="#47443F"/>
<path d="M28.0431 13.5265C27.4421 13.5463 26.9708 14.0497 26.9907 14.6507C27.0963 17.8485 25.9503 20.8959 23.7637 23.2319C21.5772 25.5676 18.612 26.9124 15.4142 27.0179C15.2809 27.0223 15.1484 27.0245 15.0156 27.0245C10.8431 27.0243 6.99939 24.8573 4.82864 21.3463L8.61355 22.3612C9.19444 22.5169 9.79162 22.1723 9.94738 21.5913C10.1031 21.0105 9.75851 20.4134 9.17763 20.2574L3.02169 18.6069C2.74275 18.5323 2.44542 18.5713 2.1954 18.7156C1.9452 18.8598 1.7627 19.0978 1.68786 19.3767L0.0374578 25.5328C-0.118305 26.1137 0.226324 26.7108 0.807211 26.8666C0.901732 26.892 0.996513 26.9042 1.0899 26.9042C1.57061 26.9042 2.01063 26.5832 2.14104 26.0969L3.06873 22.6369C5.64945 26.7006 10.1416 29.2025 15.0151 29.2024C15.1716 29.2024 15.329 29.1998 15.4862 29.1946C19.2654 29.0697 22.7698 27.4807 25.3539 24.7202C27.938 21.9597 29.2923 18.3581 29.1674 14.5788C29.1477 13.9779 28.644 13.5051 28.0431 13.5265Z" fill="#47443F"/>
</g>
<defs>
<clipPath id="clip0">
<rect width="30" height="30" fill="white"/>
</clipPath>
</defs>
</svg>
