<svg width="12" height="12" viewBox="0 0 12 12" fill="none" xmlns="http://www.w3.org/2000/svg">
<path d="M6.27381 10.4326C5.95873 10.8603 5.46806 11.1231 4.93754 11.1493C4.40702 11.1756 3.8932 10.9618 3.53772 10.567L0.352174 7.03192C-0.15411 6.47043 -0.109137 5.60491 0.452353 5.09862C1.01438 4.59234 1.87937 4.63758 2.38566 5.19934L4.63943 7.7006C4.67282 7.73776 4.72129 7.75769 4.77111 7.75526C4.8212 7.75284 4.86698 7.7278 4.89688 7.68794L9.52937 1.40491C9.97776 0.796288 10.8347 0.666755 11.4436 1.11541C12.0519 1.56406 12.1812 2.42097 11.7325 3.02932L6.27381 10.4326Z" fill="#47443F"/>
</svg>
