<svg width="15" height="15" viewBox="0 0 15 15" fill="none" xmlns="http://www.w3.org/2000/svg">
<path d="M7.25624 5.83125V8.8H11.2938C10.7 10.4031 9.15625 11.4719 7.375 11.4719C5.05937 11.4719 3.21875 9.63125 3.21875 7.31562C3.21875 5 5.05937 3.15937 7.375 3.15937C8.26562 3.15937 9.09688 3.45625 9.80938 3.93125L10.0469 4.10938L11.8281 1.79375L11.5906 1.61562C10.3438 0.725 8.91875 0.25 7.375 0.25C3.45625 0.25 0.25 3.45625 0.25 7.375C0.25 11.2937 3.45625 14.5 7.375 14.5C11.2937 14.5 14.5 11.2937 14.5 7.375V5.89062H7.25624V5.83125Z" fill="white"/>
</svg>
