<svg width="14" height="8" viewBox="0 0 14 8" fill="none" xmlns="http://www.w3.org/2000/svg">
<path d="M0.546865 3.45313H12.1285L10.21 1.54389C9.99591 1.33082 9.99509 0.984571 10.2081 0.770497C10.4212 0.556396 10.7675 0.555603 10.9816 0.768638L13.8391 3.61238C13.8393 3.61255 13.8394 3.61274 13.8396 3.6129C14.0531 3.82596 14.0538 4.17334 13.8396 4.38711C13.8395 4.38727 13.8393 4.38747 13.8392 4.38763L10.9816 7.23137C10.7676 7.44438 10.4213 7.44364 10.2082 7.22951C9.99514 7.01544 9.99596 6.66919 10.21 6.45613L12.1285 4.54688H0.546865C0.244826 4.54688 -9.53674e-06 4.30204 -9.53674e-06 4.00001C-9.53674e-06 3.69797 0.244826 3.45313 0.546865 3.45313Z" fill="#47443F"/>
</svg>
