<svg width="24" height="12" viewBox="0 0 24 12" fill="none" xmlns="http://www.w3.org/2000/svg">
<path d="M23.0625 6.93751L3.20824 6.93751L6.49717 10.2105C6.86416 10.5758 6.86556 11.1693 6.50031 11.5363C6.13507 11.9033 5.54144 11.9047 5.17446 11.5395L0.27583 6.66451C0.275502 6.66423 0.275268 6.66391 0.274987 6.66362C-0.0910603 6.29837 -0.0922322 5.70288 0.274893 5.33641C0.275221 5.33613 0.275455 5.3358 0.275737 5.33552L5.17436 0.460529C5.5413 0.0953741 6.13492 0.0966387 6.50022 0.463717C6.86547 0.8307 6.86407 1.42428 6.49708 1.78953L3.20824 5.06252L23.0625 5.06252C23.5803 5.06252 24 5.48224 24 6.00002C24 6.5178 23.5803 6.93751 23.0625 6.93751Z" fill="#878787"/>
</svg>
