<svg width="24" height="12" viewBox="0 0 24 12" fill="none" xmlns="http://www.w3.org/2000/svg">
<path d="M0.937483 5.06249H20.7918L17.5028 1.78949C17.1358 1.42424 17.1344 0.830667 17.4997 0.463684C17.8649 0.0966531 18.4586 0.095294 18.8255 0.460496L23.7242 5.33549C23.7245 5.33577 23.7247 5.33609 23.725 5.33638C24.0911 5.70163 24.0922 6.29712 23.7251 6.66359C23.7248 6.66387 23.7245 6.6642 23.7243 6.66448L18.8256 11.5395C18.4587 11.9046 17.8651 11.9034 17.4998 11.5363C17.1345 11.1693 17.1359 10.5757 17.5029 10.2105L20.7918 6.93748H0.937483C0.419703 6.93748 -1.71661e-05 6.51776 -1.71661e-05 5.99998C-1.71661e-05 5.4822 0.419703 5.06249 0.937483 5.06249Z" fill="#878787"/>
</svg>
