<svg width="14" height="14" viewBox="0 0 14 14" fill="none" xmlns="http://www.w3.org/2000/svg">
<g clip-path="url(#clip0)">
<path d="M13.6005 9.89315L10.538 8.58065C10.4072 8.52489 10.2618 8.51314 10.1237 8.54717C9.98562 8.5812 9.86232 8.65916 9.77238 8.76932L8.41613 10.4264C6.28762 9.42278 4.57467 7.70982 3.57109 5.58131L5.22813 4.22506C5.33851 4.13529 5.41663 4.01199 5.45067 3.87385C5.48472 3.7357 5.47283 3.59022 5.4168 3.45944L4.1043 0.396937C4.0428 0.255955 3.93405 0.140848 3.79678 0.0714641C3.65951 0.00208022 3.50233 -0.0172315 3.35234 0.016859L0.508594 0.673109C0.363992 0.706501 0.234977 0.78792 0.142607 0.904077C0.0502374 1.02023 -3.33104e-05 1.16427 1.65599e-08 1.31268C1.65599e-08 8.32635 5.68477 14.0002 12.6875 14.0002C12.836 14.0003 12.9801 13.95 13.0963 13.8577C13.2125 13.7653 13.2939 13.6362 13.3273 13.4916L13.9836 10.6478C14.0175 10.4971 13.9977 10.3393 13.9278 10.2016C13.8579 10.0638 13.7422 9.95476 13.6005 9.89315Z" fill="#47443F"/>
</g>
<defs>
<clipPath id="clip0">
<rect width="14" height="14" fill="white"/>
</clipPath>
</defs>
</svg>
