<svg width="20" height="20" viewBox="0 0 20 20" fill="none" xmlns="http://www.w3.org/2000/svg">
<path d="M3.96164 0.376892H2.03702C1.50775 0.376892 1.07471 0.809931 1.07471 1.3392V2.83078H4.92395V1.3392C4.92395 0.809931 4.49091 0.376892 3.96164 0.376892Z" fill="black"/>
<path d="M1.07471 18.6608C1.07471 19.1901 1.50775 19.6231 2.03702 19.6231H3.96164C4.49091 19.6231 4.92395 19.1901 4.92395 18.6608V7.32156H1.07471V18.6608Z" fill="black"/>
<path d="M0.96231 6.03848H1.07458H4.92382H5.03609C5.56536 6.03848 5.9984 5.60544 5.9984 5.07617C5.9984 4.5469 5.56536 4.11386 5.03609 4.11386H4.92382H1.07458H0.96231C0.433039 4.11386 0 4.5469 0 5.07617C0 5.60544 0.433039 6.03848 0.96231 6.03848Z" fill="black"/>
<path d="M11.9327 1.3392C11.9327 0.809931 11.4997 0.376892 10.9704 0.376892H9.04581C8.51654 0.376892 8.0835 0.809931 8.0835 1.3392V12.069H11.9327V1.3392Z" fill="black"/>
<path d="M8.0835 18.6608C8.0835 19.1901 8.51654 19.6231 9.04581 19.6231H10.9704C11.4997 19.6231 11.9327 19.1901 11.9327 18.6608V16.5598H8.0835V18.6608Z" fill="black"/>
<path d="M12.0289 15.2767C12.5584 15.2767 12.9912 14.8436 12.9912 14.3144C12.9912 13.7849 12.5584 13.3521 12.0289 13.3521H11.9168H8.06757H7.97134C7.44207 13.3521 7.00903 13.7849 7.00903 14.3144C7.00903 14.8436 7.44207 15.2767 7.97134 15.2767H8.08361H11.9329H12.0289Z" fill="black"/>
<path d="M17.9631 0.376892H16.0385C15.5092 0.376892 15.0762 0.809931 15.0762 1.3392V6.03848H18.9254V1.3392C18.9254 0.809931 18.4925 0.376892 17.9631 0.376892Z" fill="black"/>
<path d="M17.9631 19.6231C18.4925 19.6231 18.9254 19.19 18.9254 18.6608V10.5292H15.0762V18.6608C15.0762 19.19 15.5092 19.6231 16.0385 19.6231H17.9631Z" fill="black"/>
<path d="M19.0376 7.32156H18.9254H15.0761H14.964C14.4346 7.32156 14.0017 7.7546 14.0017 8.28387C14.0017 8.81314 14.4346 9.24618 14.964 9.24618H15.0761H18.9254H19.0376C19.5669 9.24618 19.9999 8.81314 19.9999 8.28387C19.9999 7.7546 19.5669 7.32156 19.0376 7.32156Z" fill="black"/>
</svg>
