<svg width="18" height="18" viewBox="0 0 18 18" fill="none" xmlns="http://www.w3.org/2000/svg">
<circle cx="9" cy="9" r="9" fill="#2F89CE"/>
<path d="M4.20762 9.16836L6.27676 9.9399L7.08337 12.5351C7.11844 12.7104 7.32887 12.7455 7.46915 12.6403L8.62646 11.6934C8.73167 11.5882 8.90702 11.5882 9.0473 11.6934L11.1164 13.2014C11.2567 13.3066 11.4671 13.2365 11.5022 13.0611L13.0453 5.69642C13.0804 5.52107 12.905 5.34572 12.7297 5.41586L4.20762 8.71245C3.9972 8.78259 3.9972 9.09822 4.20762 9.16836ZM6.97817 9.55413L11.0463 7.06415C11.1164 7.02908 11.1866 7.1343 11.1164 7.16937L7.78478 10.2906C7.67956 10.3958 7.57435 10.5361 7.57435 10.7114L7.46915 11.5531C7.46915 11.6583 7.29379 11.6934 7.25872 11.5531L6.83788 10.01C6.73267 9.83469 6.80282 9.62427 6.97817 9.55413Z" fill="white"/>
</svg>
