<svg width="18" height="18" viewBox="0 0 18 18" fill="none" xmlns="http://www.w3.org/2000/svg">
<circle cx="9" cy="9" r="9" fill="#7C509A"/>
<path d="M11.8143 4.74566C10.0991 4.41811 8.31793 4.41811 6.60275 4.74566C5.84411 4.90944 4.88757 5.82657 4.72264 6.54718C4.42579 7.95563 4.42579 9.39685 4.72264 10.8053C4.92055 11.5259 5.87709 12.443 6.60275 12.6068C6.63573 12.6068 6.66872 12.6396 6.66872 12.6723V14.7359C6.66872 14.8341 6.80065 14.8997 6.86662 14.8014L7.85615 13.786C7.85615 13.786 8.64777 12.9671 8.77971 12.8361C8.77971 12.8361 8.8127 12.8033 8.84568 12.8033C9.83521 12.8361 10.8577 12.7378 11.8473 12.5741C12.6059 12.4103 13.5624 11.4932 13.7274 10.7725C14.0242 9.36409 14.0242 7.92288 13.7274 6.51442C13.5294 5.82657 12.5729 4.90944 11.8143 4.74566ZM11.8473 10.9036C11.6823 11.2311 11.4844 11.4932 11.1546 11.6569C11.0556 11.6897 10.9567 11.7224 10.8577 11.7552C10.7258 11.7224 10.6268 11.6897 10.5279 11.6569C9.47238 11.2311 8.48285 10.6415 7.69123 9.7899C7.26243 9.29858 6.89961 8.74175 6.60275 8.15216C6.47081 7.85737 6.33887 7.59533 6.23992 7.30054C6.14097 7.0385 6.30589 6.77646 6.47081 6.57993C6.63573 6.3834 6.83364 6.25238 7.06453 6.15412C7.22945 6.05585 7.39437 6.12136 7.52631 6.25238C7.79018 6.57993 8.05406 6.90748 8.25196 7.26778C8.3839 7.49707 8.35092 7.7591 8.12003 7.92288C8.05406 7.95563 8.02107 7.98839 7.9551 8.0539C7.92212 8.08665 7.85615 8.11941 7.82317 8.18492C7.7572 8.28318 7.7572 8.38145 7.79018 8.47971C8.05406 9.23307 8.54882 9.82266 9.30746 10.1502C9.4394 10.2157 9.53835 10.2485 9.70327 10.2485C9.93416 10.2157 10.0331 9.95368 10.198 9.82266C10.363 9.69164 10.5609 9.69164 10.7588 9.7899C10.9237 9.88817 11.0886 10.0192 11.2865 10.1502C11.4514 10.2812 11.6164 10.3795 11.7813 10.5105C11.8802 10.576 11.9132 10.7398 11.8473 10.9036ZM10.4619 8.44696C10.3959 8.44696 10.4289 8.44696 10.4619 8.44696C10.33 8.44696 10.297 8.38145 10.264 8.28318C10.264 8.21767 10.264 8.11941 10.231 8.0539C10.198 7.92288 10.1321 7.79186 10.0001 7.6936C9.93416 7.66084 9.86819 7.62809 9.80222 7.59533C9.70327 7.56258 9.6373 7.56258 9.53835 7.56258C9.4394 7.52982 9.40641 7.46431 9.40641 7.36605C9.40641 7.30054 9.50537 7.23503 9.57133 7.23503C10.0991 7.26778 10.4949 7.56258 10.5609 8.18492C10.5609 8.21767 10.5609 8.28318 10.5609 8.31594C10.5609 8.38145 10.5279 8.44696 10.4619 8.44696ZM10.1321 7.00574C9.96715 6.94023 9.80222 6.87472 9.60432 6.84197C9.53835 6.84197 9.4394 6.80921 9.37343 6.80921C9.27448 6.80921 9.20851 6.74371 9.24149 6.64544C9.24149 6.54718 9.30746 6.48167 9.40641 6.51442C9.73626 6.54718 10.0331 6.61269 10.33 6.74371C10.9237 7.0385 11.2535 7.52982 11.3525 8.18492C11.3525 8.21767 11.3525 8.25043 11.3525 8.28318C11.3525 8.34869 11.3525 8.4142 11.3525 8.51247C11.3525 8.54522 11.3525 8.57798 11.3525 8.61073C11.3195 8.74175 11.0886 8.7745 11.0556 8.61073C11.0556 8.57798 11.0226 8.51247 11.0226 8.47971C11.0226 8.18492 10.9567 7.89012 10.8247 7.62809C10.6268 7.33329 10.3959 7.13676 10.1321 7.00574ZM11.9132 8.97103C11.8143 8.97103 11.7483 8.87277 11.7483 8.7745C11.7483 8.57798 11.7153 8.38145 11.6823 8.18492C11.5504 7.13676 10.6928 6.28514 9.67029 6.12136C9.50537 6.08861 9.34045 6.08861 9.20851 6.05585C9.10956 6.05585 8.97762 6.05585 8.94463 5.92483C8.91165 5.82657 9.0106 5.72831 9.10955 5.72831C9.14254 5.72831 9.17552 5.72831 9.17552 5.72831C10.5279 5.76106 9.24149 5.72831 9.17552 5.72831C10.5609 5.76106 11.7153 6.6782 11.9462 8.0539C11.9792 8.28318 12.0122 8.51247 12.0122 8.7745C12.0781 8.87277 12.0122 8.97103 11.9132 8.97103Z" fill="white"/>
</svg>
