<svg width="18" height="18" viewBox="0 0 18 18" fill="none" xmlns="http://www.w3.org/2000/svg">
<circle cx="9" cy="9" r="9" fill="#48C95F"/>
<path d="M12.5671 5.42811C11.678 4.54217 10.4927 4.04999 9.24146 4.04999C6.64024 4.04999 4.53293 6.14999 4.53293 8.74218C4.53293 9.56249 4.76341 10.3828 5.15854 11.0719L4.5 13.5L7.00244 12.8437C7.6939 13.2047 8.45122 13.4016 9.24146 13.4016C11.8427 13.4016 13.95 11.3016 13.95 8.70936C13.9171 7.4953 13.4561 6.31405 12.5671 5.42811ZM11.5134 10.4156C11.4146 10.6781 10.9537 10.9406 10.7232 10.9734C10.5256 11.0062 10.2622 11.0062 9.99878 10.9406C9.83415 10.875 9.60366 10.8094 9.34024 10.6781C8.15488 10.1859 7.39756 9.00467 7.33171 8.90624C7.26585 8.84061 6.83781 8.2828 6.83781 7.69217C6.83781 7.10155 7.13415 6.83905 7.23293 6.7078C7.33171 6.57655 7.46341 6.57655 7.56219 6.57655C7.62805 6.57655 7.72683 6.57655 7.79268 6.57655C7.85854 6.57655 7.95732 6.54374 8.0561 6.77343C8.15488 7.00311 8.38537 7.59374 8.41829 7.62655C8.45122 7.69218 8.45122 7.7578 8.41829 7.82343C8.38537 7.88905 8.35244 7.95467 8.28658 8.0203C8.22073 8.08592 8.15488 8.18436 8.12195 8.21718C8.0561 8.2828 7.99024 8.34842 8.0561 8.44686C8.12195 8.57811 8.35244 8.93905 8.71463 9.26717C9.17561 9.66092 9.53781 9.79218 9.66951 9.8578C9.80122 9.92343 9.86707 9.89061 9.93293 9.82499C9.99878 9.75936 10.2293 9.49686 10.2951 9.36561C10.361 9.23436 10.4598 9.26718 10.5585 9.29999C10.6573 9.3328 11.25 9.62811 11.3488 9.69374C11.4805 9.75936 11.5463 9.79217 11.5793 9.82499C11.6122 9.92342 11.6122 10.1531 11.5134 10.4156Z" fill="white"/>
</svg>
